<svg width="60" height="60" viewBox="0 0 60 60" fill="none" xmlns="http://www.w3.org/2000/svg">
<path d="M52.8 55.2001C55.451 55.2001 57.6 53.0511 57.6 50.4001C57.6 47.7491 55.451 45.6001 52.8 45.6001C50.149 45.6001 48 47.7491 48 50.4001C48 53.0511 50.149 55.2001 52.8 55.2001Z" fill="black"/>
<path d="M18.0002 55.2001C20.6512 55.2001 22.8002 53.0511 22.8002 50.4001C22.8002 47.7491 20.6512 45.6001 18.0002 45.6001C15.3492 45.6001 13.2002 47.7491 13.2002 50.4001C13.2002 53.0511 15.3492 55.2001 18.0002 55.2001Z" fill="black"/>
<path d="M56.4 39.6H18.9252L19.7256 38.3016C20.0688 37.7448 20.1696 37.0716 20.0052 36.438L19.224 33.4308L54.0036 31.6236C55.3224 31.5564 56.4 30.42 56.4 29.1V13.2C56.4 11.88 55.32 10.8 54 10.8H13.3428L12.8736 8.99635C12.7399 8.48194 12.4393 8.02646 12.0188 7.70134C11.5984 7.37623 11.0819 7.19988 10.5504 7.19995H2.4C1.76348 7.19995 1.15303 7.45281 0.702944 7.90289C0.252856 8.35298 0 8.96343 0 9.59995C0 10.2365 0.252856 10.8469 0.702944 11.297C1.15303 11.7471 1.76348 12 2.4 12H8.6952L15.1032 36.654L12.5832 40.74C12.359 41.1035 12.2361 41.5203 12.227 41.9473C12.2179 42.3743 12.3231 42.796 12.5316 43.1688C12.7393 43.542 13.0429 43.8529 13.411 44.0693C13.7792 44.2858 14.1985 44.3999 14.6256 44.4H56.4C57.0365 44.4 57.647 44.1471 58.0971 43.697C58.5471 43.2469 58.8 42.6365 58.8 42C58.8 41.3634 58.5471 40.753 58.0971 40.3029C57.647 39.8528 57.0365 39.6 56.4 39.6Z" fill="black"/>
</svg>
