<svg width="85" height="80" viewBox="0 0 85 80" fill="none" xmlns="http://www.w3.org/2000/svg">
<ellipse cx="42.5" cy="40" rx="42.5" ry="40" fill="#D9D9D9"/>
<path d="M42.5 9C24.3086 9 9.5625 22.8787 9.5625 40C9.5625 57.1213 24.3086 71 42.5 71C60.6914 71 75.4375 57.1213 75.4375 40C75.4375 22.8787 60.6914 9 42.5 9Z" stroke="black" stroke-width="6" stroke-linecap="round" stroke-linejoin="round"/>
<path d="M17.042 59.6725C17.042 59.6725 24.3838 50.8499 42.4994 50.8499C60.615 50.8499 67.9601 59.6725 67.9601 59.6725M42.4994 39.9999C45.1201 39.9999 47.6334 39.0201 49.4865 37.276C51.3396 35.5319 52.3806 33.1664 52.3806 30.6999C52.3806 28.2334 51.3396 25.8679 49.4865 24.1238C47.6334 22.3797 45.1201 21.3999 42.4994 21.3999C39.8787 21.3999 37.3654 22.3797 35.5123 24.1238C33.6592 25.8679 32.6181 28.2334 32.6181 30.6999C32.6181 33.1664 33.6592 35.5319 35.5123 37.276C37.3654 39.0201 39.8787 39.9999 42.4994 39.9999Z" stroke="black" stroke-width="6" stroke-linecap="round" stroke-linejoin="round"/>
</svg>
